<svg width="256" height="256" viewBox="0 0 256 256" fill="none" xmlns="http://www.w3.org/2000/svg">
  <rect width="256" height="256" rx="72" fill="#FFF7F4"/>
  <circle cx="128" cy="128" r="78" fill="#FFFDFC"/>
  <path d="M128 58C138.493 58 147 49.4934 147 39C147 49.4934 155.507 58 166 58C155.507 58 147 66.5066 147 77C147 66.5066 138.493 58 128 58Z" fill="#FF8EB0"/>
  <path d="M190 118C200.493 118 209 109.493 209 99C209 109.493 217.507 118 228 118C217.507 118 209 126.507 209 137C209 126.507 200.493 118 190 118Z" fill="#FFC78F"/>
  <path d="M67 118C77.4934 118 86 109.493 86 99C86 109.493 94.5066 118 105 118C94.5066 118 86 126.507 86 137C86 126.507 77.4934 118 67 118Z" fill="#C8E4CA"/>
  <path d="M128 210C138.493 210 147 201.493 147 191C147 201.493 155.507 210 166 210C155.507 210 147 218.507 147 229C147 218.507 138.493 210 128 210Z" fill="#F5B0C8"/>
  <path d="M154.094 92.158C141.474 82.5527 123.541 82.1988 110.551 91.2983C98.172 99.9701 92.0674 115.576 95.1021 130.211C97.3156 140.885 104.582 149.273 114.245 153.689C117.468 155.162 118.926 158.902 117.597 162.187L113.95 171.203C113.154 173.172 114.603 175.321 116.726 175.321H140.289C142.364 175.321 143.807 173.258 143.093 171.31L139.503 161.513C138.31 158.257 139.764 154.621 142.92 153.204C153.503 148.451 161.27 138.709 162.32 126.942C163.413 114.695 160.054 96.6976 154.094 92.158Z" fill="#2F2633"/>
  <path d="M143.244 107.589C138.935 103.011 130.2 100.761 122.5 103.048C114.785 105.338 110.188 111.064 109.756 117.627C109.609 119.858 111.777 121.517 113.924 120.904C115.018 120.591 115.82 119.64 116.067 118.535C117.284 113.092 121.473 109.849 126.577 108.334C131.922 106.748 137.001 107.734 140.148 111.073C141.76 112.785 144.961 112.221 145.535 109.939C145.742 109.114 145.436 108.362 144.868 107.902L143.244 107.589Z" fill="#FFF7F4"/>
</svg>
